<svg width="20" height="20" viewBox="0 0 20 20" fill="none" xmlns="http://www.w3.org/2000/svg">
<path d="M16.8723 0.993704L17.0585 0.807454C17.1987 0.66735 17.3651 0.556229 17.5482 0.480437C17.7314 0.404645 17.9276 0.365665 18.1258 0.365723C18.324 0.365781 18.5203 0.404876 18.7034 0.480775C18.8864 0.556675 19.0528 0.667893 19.1929 0.808079C19.333 0.948265 19.4441 1.11467 19.5199 1.2978C19.5957 1.48093 19.6347 1.6772 19.6346 1.8754C19.6346 2.07359 19.5955 2.26983 19.5196 2.45292C19.4437 2.63601 19.3325 2.80235 19.1923 2.94245L19.006 3.12745C19.3246 3.48478 19.4945 3.95044 19.4808 4.42899C19.4671 4.90753 19.2708 5.36271 18.9323 5.7012L6.06727 18.5675C5.98685 18.6475 5.88616 18.7041 5.77602 18.7312L0.77602 19.9812C0.671386 20.0073 0.56179 20.0058 0.457886 19.977C0.353982 19.9481 0.259305 19.8929 0.183058 19.8167C0.106811 19.7404 0.0515877 19.6457 0.0227559 19.5418C-0.00607584 19.4379 -0.00753509 19.3283 0.01852 19.2237L1.26852 14.2237C1.29587 14.114 1.35246 14.0138 1.43227 13.9337L13.4848 1.8812C13.3642 1.79637 13.2176 1.75686 13.0707 1.76967C12.9239 1.78248 12.7863 1.84678 12.6823 1.9512L8.56727 6.06745C8.50916 6.12556 8.44017 6.17166 8.36425 6.20311C8.28832 6.23456 8.20695 6.25074 8.12477 6.25074C8.04259 6.25074 7.96121 6.23456 7.88529 6.20311C7.80937 6.17166 7.74038 6.12556 7.68227 6.06745C7.62416 6.00934 7.57806 5.94036 7.54662 5.86443C7.51517 5.78851 7.49898 5.70713 7.49898 5.62495C7.49898 5.54277 7.51517 5.4614 7.54662 5.38547C7.57806 5.30955 7.62416 5.24056 7.68227 5.18245L11.7998 1.06745C12.1385 0.728723 12.594 0.53248 13.0728 0.518998C13.5517 0.505516 14.0175 0.675818 14.3748 0.994954C14.7182 0.688002 15.1627 0.518219 15.6233 0.517988C16.0839 0.517758 16.5285 0.687096 16.8723 0.993704Z" fill="white"/>
</svg>
